<?xml version="1.0" encoding="utf-8"?>
<!-- Generator: Adobe Illustrator 22.1.0, SVG Export Plug-In . SVG Version: 6.00 Build 0)  -->
<svg version="1.1" id="Capa_1" xmlns="http://www.w3.org/2000/svg" xmlns:xlink="http://www.w3.org/1999/xlink" x="0px" y="0px"
	 viewBox="0 0 612 792" style="enable-background:new 0 0 612 792;" xml:space="preserve">
<style type="text/css">
	.st0{fill:#B7B753;}
	.st1{fill:#B7B754;}
	.st2{fill:#B7B752;}
</style>
<g>
	<path class="st0" d="M381.9,258.7c-1.6,38.4-17.7,71.8-49.6,98.4c-68.4,57-124.9,122.9-150.6,210.6c-5.1,17.3-8.6,34.9-7.8,53
		c0.5,10.7-3.3,15.5-14.9,15.1c-61.6-1.9-107-48.7-106.4-110c0.1-9.1,0.4-15.6,12.1-14.7c9.1,0.7,18.5-2.2,19.2,12.8
		c1.5,29.3,11.1,55,38.8,70.1c11.6,6.3,17.1,7.8,23.1-9.7c13.9-40.2,15.7-72.9-19.4-105.7c-22.5-21-26.2-55.2-25.2-86.9
		c0.2-8.2-6.5-22.6,11.5-21.3c12.5,0.9,23.7,3.2,21.3,21.4c-2.4,18.7,2,37.1,9.4,54.7c4.8,11.4,11.9,21.2,19.7,30.6
		c10.2,12.4,18,12.4,24.1-3.2c0.3-0.7,0.6-1.3,1.1-1.9c19.7-22.7,27-41.7,2.7-70.3c-24-28.3-20.3-67.6-14.5-103.7
		c0.9-5.7-0.9-17,11.3-13.1c9.2,3,23.6,1.7,20.1,18.8c-3.8,18.5-4.9,37,0,55.5c1.3,4.8,2.3,9.8,4.1,14.5
		c12.9,33.8,19.5,35.3,44.2,10c10.5-10.8,26.4-19.9,30.4-32.7c4-12.6-13.8-22.8-20.7-35.1c-37-66-7.8-127.8,40.6-165.6
		c4.9-3.8,9.2-6.1,15.1-1.2C355.1,177.3,381.6,209.3,381.9,258.7z M350.9,256.4c-1.8-23.1-11.2-41.8-25-59.2
		c-8-10.1-13.1-10-21.4-0.5c-31.7,36.1-30.4,88.4,3,123.2c8.1,8.4,12.9,5.7,18.9-1.4C341.8,300.3,349.1,279,350.9,256.4z"/>
	<path class="st1" d="M247.7,565.3c8.8-16.6,13.2-30.3,21.9-40.2c16.2-18.3,14.7-31.8-5.9-44.2c-11.1-6.7-11.4-13.2-2.5-23.7
		c9.2-10.8,14.5-9.2,23.8-0.7c23.3,21.5,23.7,21.1,48.9,1.8c2.3-1.7,4.5-3.5,6.8-5.3c27.2-20.9,27.6-21.3,3.1-45.1
		c-10.2-9.8-12.4-16.5-1.7-27.8c12.9-13.5,18.5-1.8,25.5,5.2c22.8,22.4,26,21.7,36-10.2c6.6-21,6.1-42.9,3.9-64.1
		c-1.9-17.6,8.1-18.6,20-20.3c16.5-2.4,12.3,11,13.1,18.6c7.5,68.3-19.1,121.7-72.5,163c-27.9,21.6-56,42.6-74.4,73.8
		c-12.7,21.5-19.8,44.4-20.1,69.4c-0.1,8.1,2.7,18.2-11.6,17.6c-9.9-0.4-19.1,2-20.4-13.8c-1.5-19.1-11.6-35.9-25.5-48.7
		c-12.4-11.4-7.3-22,0.6-29.6c9.8-9.5,13.2,5.3,19.1,9.3C240.4,553.3,243,559.1,247.7,565.3z"/>
	<path class="st0" d="M368.8,567.2c12.9-13.8,23.3-28.1,36.8-38.5c18.6-14.4,19-27.3,3.2-43.1c-6-6-12-11.2-1.6-20.7
		c11.8-10.9,18.3-11.8,28.1,2.3c16.2,23.5,18.4,22.9,32.4-2.7c12.4-22.6,17.8-47.4,14.2-72.5c-2.7-19,8.8-20.1,20.8-21.6
		c16.3-2,11.5,11.6,11.9,19.4c2.9,53.2-12.5,98.8-55.7,133.1c-20.8,16.5-39.3,35.6-56.4,56c-9.4,11.2-17.4,23.2-18.8,38
		c-1.1,12-5.4,16.7-18.6,16.7c-13.9-0.1-14-7.6-15.5-17.2c-3.2-20-10.5-38.9-21-56.1c-9.5-15.5,2.9-20.9,11.5-27
		c11.8-8.4,11.9,5.1,15.6,10.3C360.4,550.2,363.9,558.1,368.8,567.2z"/>
	<path class="st2" d="M437.2,600.1c0-6.5,0.5-13-0.1-19.3c-1.1-11.1,4.6-13.2,14.1-12.9c9,0.3,18-0.8,16.3,12.7
		c-2.8,22.7,8.4,17.3,20.2,9.8c27.2-17.2,39-43.8,40.4-74.3c0.9-18.3,10.2-18.9,23.5-17.8c16,1.4,10.3,13,9.2,21
		c-7.3,52.6-29.6,94-84.9,109.7C439.1,639.4,437.2,638,437.2,600.1z"/>
</g>
</svg>
